<?xml version="1.0" encoding="utf-8"?>
<!-- Generator: Adobe Illustrator 25.2.3, SVG Export Plug-In . SVG Version: 6.00 Build 0)  -->
<svg version="1.2" baseProfile="tiny" id="Livello_1"
	 xmlns="http://www.w3.org/2000/svg" xmlns:xlink="http://www.w3.org/1999/xlink" x="0px" y="0px" viewBox="0 0 484.67 115.33"
	 overflow="visible" xml:space="preserve">
<polygon points="236.7,33.7 222.61,57.5 240.85,57.5 241.01,57.5 255.09,33.7 282.22,33.7 286.1,27.15 243.67,27.15 240.85,27.15 
	210.97,27.15 207.1,33.7 "/>
<polygon points="299.41,40.71 284.72,40.71 280.88,40.71 276.29,47.5 284.72,47.5 299.41,47.5 305.54,47.5 310.13,40.71 "/>
<polygon points="178.51,26.9 151.1,48.16 146.39,26.9 124.47,26.9 106.51,57.25 122.64,57.25 137.04,33.65 142.52,57.25 
	153.42,57.25 184.42,34.03 169.81,57.25 186.45,57.25 204.41,26.9 "/>
<path d="M360.54,26.9h-8.16h-20.9l-17.96,30.35h38.86h8.16h18.76l17.96-30.35H360.54z M365.9,50.99h-32.96l10.9-18.42h32.96
	L365.9,50.99z"/>
<path d="M436.4,26.9h-2.5h-26.57l-10.07,17.01h53.4l-4.43,7.49h-53.4l-3.46,5.84h44.53h2.5h24.42l17.96-30.35H436.4z M453.79,38.64
	h-36.71l4.29-7.24h36.71L453.79,38.64z"/>
<g>
	<g>
		<g>
			<path d="M25.41,16.78c-0.04-0.32-0.22-0.59-0.5-0.76C24.54,15.8,9.98,7.15,6.97,5.37c-0.16-0.1-0.35-0.15-0.53-0.15
				c-0.25,0-0.5,0.09-0.7,0.27C5.41,5.8,5.32,6.3,5.51,6.71c1.31,2.71,2.67,5.53,2.68,5.54l0.01,0.03
				c0.51,1.95,8.21,31.26,8.33,31.73c0.03,0.12,0.09,0.24,0.16,0.34c0.24,0.33,8.66,12.08,12.54,17.5c0.2,0.28,0.51,0.43,0.84,0.43
				c0.13,0,0.25-0.02,0.38-0.07c0.44-0.17,0.71-0.62,0.65-1.09C29.98,52.4,25.56,17.89,25.41,16.78"/>
			<path d="M91.64,5.49c-0.2-0.18-0.45-0.27-0.7-0.27c-0.18,0-0.36,0.05-0.53,0.15L72.47,16.02c-0.27,0.16-0.46,0.44-0.5,0.76
				c-0.06,0.49-5.05,39.4-5.69,44.34c-0.06,0.47,0.21,0.92,0.65,1.09c0.12,0.05,0.25,0.07,0.38,0.07c0.32,0,0.64-0.15,0.84-0.43
				l5.28-7.37c3.49-4.88,7.1-9.92,7.25-10.13c0.08-0.1,0.13-0.22,0.16-0.35c0.12-0.46,7.83-29.81,8.34-31.73
				c0.25-0.51,1.51-3.13,2.69-5.57C92.07,6.3,91.98,5.8,91.64,5.49"/>
			<path d="M65.03,20.23c-0.17,0-0.34,0.04-0.49,0.12l-3.32,1.8c-3.88,2.1-7.87,4.26-8.6,4.66c-0.32,0.18-0.53,0.51-0.54,0.89
				c-0.04,1.51-1.25,50.51-1.32,53.02l-0.45,2.04c-1.23,1.84-2.43,1.08-3.21,0.14l-0.48-2.18c-0.06-2.56-1.28-51.53-1.32-53.02
				c-0.01-0.37-0.22-0.71-0.54-0.89c-0.56-0.3-3.04-1.65-5.92-3.21l-6-3.25c-0.15-0.09-0.32-0.12-0.49-0.12
				c-0.27,0-0.55,0.11-0.75,0.31c-0.32,0.33-0.38,0.84-0.15,1.24c0.72,1.22,1.57,2.66,1.88,3.18l4.91,50.27
				c-0.11,0.74-0.66,4.58-0.74,5.11c-0.02,0.17-0.01,0.34,0.05,0.5c0.2,0.56,8.13,22.73,10.16,28.38c0.15,0.41,0.54,0.69,0.97,0.69
				s0.83-0.28,0.97-0.69c1.96-5.49,9.95-27.8,10.16-28.38c0.06-0.16,0.07-0.33,0.05-0.5c-0.08-0.53-0.63-4.37-0.74-5.11l4.91-50.28
				c0.3-0.52,1.15-1.95,1.88-3.18c0.24-0.4,0.18-0.91-0.15-1.25C65.58,20.34,65.31,20.23,65.03,20.23"/>
		</g>
	</g>
</g>
</svg>
